<svg xmlns="http://www.w3.org/2000/svg" width="1233" height="851" viewBox="0 0 1233 851">
<g>
<path d="M 395.00,849.93 C370.73,848.72 346.38,844.19 326.00,837.11 L 317.50,834.15 L 327.16,834.08 C332.47,834.03 345.07,834.73 355.16,835.62 C377.57,837.59 402.50,837.05 425.65,834.08 C493.24,825.42 550.31,806.43 601.30,775.64 C631.23,757.56 648.93,743.61 679.00,714.37 C690.28,703.41 701.00,693.82 702.83,693.07 C705.58,691.93 707.06,691.91 711.33,692.95 C723.40,695.90 730.43,697.21 746.38,699.50 C765.95,702.30 772.50,704.71 772.50,709.12 C772.50,713.74 736.01,746.98 711.00,765.15 C642.85,814.65 562.66,844.20 480.81,849.97 C464.37,851.12 418.62,851.10 395.00,849.93 M 356.00,793.38 C322.33,790.46 291.90,784.02 257.50,772.53 C185.49,748.48 133.03,713.36 85.14,657.13 C39.72,603.80 12.15,540.64 2.33,467.38 C-0.11,449.21 -0.11,401.80 2.33,383.50 C8.00,340.99 18.55,305.80 36.51,269.50 C55.51,231.11 78.41,199.39 109.43,168.48 C171.03,107.10 249.29,70.99 346.00,59.32 C366.35,56.86 410.89,56.87 430.99,59.35 C463.86,63.39 489.67,69.23 522.39,80.05 C543.93,87.17 548.00,88.99 548.00,91.52 C548.00,93.40 547.85,93.39 539.63,91.04 C504.98,81.13 443.99,75.57 408.42,79.08 C381.86,81.70 347.46,88.98 320.88,97.61 C261.83,116.77 214.12,145.84 170.94,188.96 C129.55,230.29 103.21,272.16 85.01,325.56 C54.47,415.18 62.09,506.72 107.19,592.00 C142.85,659.44 195.39,710.23 266.89,746.41 C312.18,769.32 348.31,779.52 413.86,787.91 C422.30,788.99 429.40,790.07 429.63,790.30 C431.50,792.17 371.16,794.70 356.00,793.38 M 823.00,676.87 C782.53,674.16 736.82,667.29 687.50,656.51 C661.92,650.91 437.62,598.91 437.15,598.47 C435.81,597.18 459.08,587.75 471.65,584.49 C488.85,580.02 525.23,574.67 549.32,573.08 C576.75,571.26 640.37,578.07 730.06,592.41 C773.93,599.43 803.11,603.66 832.00,607.17 C847.68,609.08 855.45,609.43 883.00,609.43 C911.87,609.43 917.12,609.18 930.00,607.16 C969.94,600.91 999.92,590.81 1022.00,576.17 C1030.25,570.70 1045.43,558.09 1044.67,557.34 C1044.41,557.08 1039.54,557.40 1033.85,558.07 C1019.48,559.74 985.51,558.71 967.50,556.06 C959.80,554.93 937.98,551.06 919.00,547.47 C900.02,543.87 883.83,540.83 883.01,540.70 C882.19,540.58 888.44,535.53 896.89,529.49 C913.58,517.56 933.73,501.13 941.19,493.38 C943.77,490.69 948.05,485.59 950.69,482.04 C960.99,468.21 968.42,466.49 986.50,473.77 C1016.05,485.68 1046.66,493.11 1078.35,496.07 C1094.92,497.62 1136.68,496.73 1150.50,494.54 C1181.71,489.58 1204.44,480.66 1224.60,465.45 C1229.22,461.97 1233.00,459.33 1233.00,459.58 C1233.00,459.84 1231.68,462.96 1230.06,466.52 C1221.57,485.25 1186.09,529.91 1155.00,561.01 C1084.47,631.56 1003.24,669.39 906.05,676.95 C890.59,678.16 841.43,678.11 823.00,676.87 M 228.72,661.81 C210.48,624.23 193.29,564.46 186.37,514.50 C183.66,494.94 183.86,465.09 186.81,450.31 C190.85,430.01 197.05,414.62 207.44,399.03 C214.00,389.20 218.37,384.06 240.36,360.36 C263.87,335.02 289.07,303.70 304.95,280.07 C333.67,237.34 358.02,184.25 363.96,151.42 C365.63,142.21 368.65,133.95 370.84,132.60 C371.32,132.30 374.66,136.01 378.26,140.83 C400.69,170.87 416.33,202.32 424.60,234.00 C432.99,266.16 434.24,304.00 427.94,334.84 C417.52,385.87 389.16,434.28 335.90,491.92 C297.74,533.23 284.14,551.35 276.97,570.40 C273.63,579.28 266.77,589.59 264.95,588.47 C262.70,587.08 264.66,556.79 268.11,539.50 C274.38,508.09 285.71,486.18 320.05,439.00 C335.65,417.58 345.11,402.13 354.36,383.00 C366.75,357.40 373.95,334.65 377.33,310.50 C378.89,299.33 378.64,294.63 375.95,284.95 C375.27,282.50 374.44,277.86 374.11,274.64 L 373.50,268.79 L 362.02,294.14 C345.95,329.65 315.83,389.74 305.48,406.96 C294.05,425.96 283.18,442.38 267.04,465.00 C244.88,496.07 237.62,514.66 233.86,550.00 C232.15,566.07 232.12,639.28 233.82,657.85 C234.54,665.74 234.93,672.41 234.67,672.66 C234.42,672.91 231.74,668.03 228.72,661.81 M 260.13,621.75 C286.46,582.63 321.39,544.87 356.85,517.21 C396.78,486.07 446.62,460.07 491.47,447.01 C497.38,445.29 503.08,443.34 504.12,442.69 C506.93,440.94 508.56,442.42 514.99,452.65 C525.07,468.67 533.94,479.72 553.21,500.25 C559.79,507.26 564.96,513.00 564.70,513.00 C564.44,513.00 557.32,513.92 548.87,515.05 C500.74,521.46 457.64,531.25 419.00,544.52 C376.85,559.00 327.51,583.71 274.65,616.82 C264.83,622.97 256.60,628.00 256.36,628.00 C256.12,628.00 257.82,625.19 260.13,621.75 M 617.05,537.25 C617.12,536.27 671.55,501.94 697.91,486.24 C713.14,477.18 719.84,472.57 723.65,468.56 C732.90,458.79 732.22,470.43 732.05,325.89 C731.95,238.50 731.58,198.16 730.84,196.56 C728.59,191.62 725.45,191.10 703.50,192.09 C692.86,192.57 689.42,191.21 685.48,184.97 L 682.97,181.00 L 636.49,181.00 C602.85,181.00 590.00,181.31 590.00,182.12 C590.00,182.74 600.76,214.57 613.91,252.87 C627.06,291.17 641.96,334.65 647.03,349.50 C652.10,364.35 656.93,377.98 657.76,379.79 C659.91,384.49 663.53,386.00 672.70,386.02 C676.99,386.02 681.07,386.39 681.77,386.84 C683.54,387.96 677.60,399.64 671.27,407.50 C661.55,419.57 642.86,432.11 625.23,438.38 C600.64,447.14 569.67,447.32 543.25,438.87 C512.37,429.00 488.69,409.06 483.63,388.67 L 482.92,385.85 L 488.42,386.53 C495.30,387.39 501.38,384.76 504.80,379.44 C506.07,377.48 512.67,359.36 519.46,339.18 C538.41,282.94 568.86,194.71 569.99,192.76 C570.55,191.81 571.00,188.21 571.00,184.76 C571.00,177.59 573.03,172.72 577.32,169.57 C580.09,167.54 581.14,167.50 630.87,167.50 C687.32,167.50 684.46,167.84 688.94,160.61 C690.72,157.72 691.88,156.99 695.54,156.44 C697.98,156.08 700.99,156.03 702.24,156.35 C703.49,156.66 709.88,156.98 716.46,157.07 C727.69,157.21 728.51,157.09 730.20,155.00 C731.34,153.59 732.00,151.12 732.00,148.25 C732.00,143.91 731.66,143.39 724.21,136.11 C715.46,127.55 714.00,124.38 714.00,113.82 C714.00,100.78 718.98,91.18 728.10,86.64 C732.66,84.37 734.66,84.00 742.52,84.00 C754.06,84.00 759.97,85.92 765.53,91.48 C770.93,96.88 774.01,105.61 773.98,115.44 C773.95,125.91 771.87,129.71 760.70,139.73 C756.26,143.71 755.20,148.16 757.43,153.48 L 759.01,157.28 L 774.96,156.56 L 790.91,155.85 L 798.88,159.45 C816.86,167.56 832.28,169.15 873.26,167.07 C889.81,166.24 900.65,166.15 907.42,166.80 C918.81,167.90 920.48,169.00 918.84,174.32 C918.30,176.07 917.87,181.55 917.88,186.50 C917.90,197.00 919.39,202.73 926.97,221.50 C929.85,228.65 935.37,244.18 939.22,256.00 C943.07,267.82 951.18,291.23 957.24,308.00 C963.29,324.77 970.87,346.30 974.08,355.84 C977.29,365.37 981.05,375.12 982.44,377.49 C986.91,385.12 995.70,387.63 1006.75,384.42 C1007.99,384.06 1009.00,384.19 1009.00,384.71 C1009.00,385.23 1006.25,389.82 1002.89,394.92 C983.33,424.62 956.89,440.20 919.52,444.04 C905.76,445.46 888.86,444.85 878.16,442.56 C843.96,435.24 816.04,415.04 806.92,391.03 L 805.04,386.08 L 811.41,386.67 C819.18,387.40 821.92,386.78 825.97,383.37 C830.57,379.50 832.09,375.92 844.01,340.66 C850.00,322.97 864.82,280.38 876.95,246.00 C889.08,211.63 899.00,183.00 899.00,182.39 C899.00,181.06 867.34,179.45 844.00,179.59 C828.42,179.69 821.80,180.56 810.25,184.05 C801.54,186.68 789.89,188.73 773.55,190.53 C764.59,191.51 759.01,192.58 757.98,193.52 C756.51,194.85 756.37,206.83 756.43,327.24 C756.49,448.36 756.64,459.75 758.15,462.50 C760.69,467.10 763.22,469.03 781.00,479.98 C808.63,496.99 869.93,536.45 869.97,537.25 C869.98,537.66 813.08,538.00 743.50,538.00 C673.92,538.00 617.02,537.66 617.05,537.25 M 977.17,385.50 C977.70,384.97 908.26,183.99 907.14,182.83 C906.69,182.35 855.29,328.66 836.21,384.75 C835.87,385.74 850.31,386.00 906.23,386.00 C944.97,386.00 976.89,385.77 977.17,385.50 M 652.00,383.98 C652.00,382.59 582.91,183.68 582.11,182.79 C581.77,182.40 565.78,227.18 546.60,282.29 C527.41,337.41 511.50,383.06 511.25,383.75 C510.88,384.74 525.33,385.00 581.39,385.00 C628.54,385.00 652.00,384.66 652.00,383.98 M 581.50,86.36 C542.09,63.57 492.75,47.87 432.00,38.81 C418.11,36.74 412.97,36.50 382.50,36.52 C355.77,36.54 345.83,36.92 336.00,38.29 C280.10,46.06 235.63,59.22 190.00,81.49 C170.86,90.83 170.84,90.49 189.75,76.23 C220.10,53.33 261.92,32.82 304.04,20.15 C345.49,7.69 385.55,1.46 431.50,0.32 C498.09,-1.33 562.98,10.61 620.50,35.10 C637.58,42.37 662.55,55.13 662.37,56.50 C662.30,57.05 653.97,60.98 643.87,65.24 C620.94,74.89 611.56,79.50 601.69,85.94 C597.43,88.72 592.94,91.00 591.72,90.99 C590.50,90.99 585.90,88.90 581.50,86.36 Z" fill="rgba(0,0,0,1)"/>
</g>
</svg>