<svg xmlns="http://www.w3.org/2000/svg" xmlns:xlink="http://www.w3.org/1999/xlink" version="1.1" id="Layer_1" x="0px" y="0px" viewBox="0 0 850.4 595.3" style="enable-background:new 0 0 850.4 595.3;" xml:space="preserve">
<style type="text/css">
	.st0{fill:#ffffff;}
	.st1{fill:#ffffff;}
	.st2{fill:#ffffff;}
	.st3{fill:#ffffff;}
</style>
<g id="XMLID_56_">
	<g id="XMLID_269_">
		<path id="XMLID_336_" class="st0" d="M318.6,399.6c15.5-8.7,31.4-11.2,46.9-13.3c13.8-1.9,27.9-3.8,42.1-2.6    c27.8,2.3,55.5,5.7,83.1,10.1c28.9,4.6,57.8,9.5,87,12.3c27.7,2.7,54.3,0.6,80.6-7.1c16.7-4.9,31.9-12.9,44.8-25.9    c-34.9,6-67.9-4-103.8-10.1c10.4-7.3,19.2-13.5,27.4-20.4c6.1-5.1,12-10,16.4-16.7c4.6-7,10.3-9.6,19.3-5.9    c24.2,10,49.3,15.7,75.9,15.9c30.1,0.2,58.5-3.4,82.6-24.2c-3.9,11.2-11.3,20.1-18.3,29c-23,29.7-49.2,56.1-81.8,75.5    c-27.8,16.6-57.7,26.8-89.9,31.2c-24,3.3-48,3.1-71.7,1.4c-31.9-2.3-63.6-8.2-94.9-15.4C416.3,422.3,368.3,411.1,318.6,399.6z" fill="#ffffff"/>
		<path id="XMLID_335_" class="st1" d="M315.6,520.5c-44.8,6.9-87.3-1.2-128.9-18.2c-27.3-11.1-51.6-27.1-72.4-47.3    c-34.1-33.1-57.1-73-66.5-120.2c-7.3-36.4-5.6-72.4,4.7-107.7c9-30.8,24.7-58.3,45.4-83.1c20.2-24.2,44.4-43.2,71.9-57.4    c29.3-15.1,60.8-23.8,94.1-27.2C307.2,55,348,62.6,388,78c0.4,0.2,0.5,1.2,1.2,3c-20.5-6.1-41.1-8.5-61.5-9.7    c-21.1-1.2-42.3,1.9-63,6.8c-49.3,11.8-91,36.4-124.5,74.3c-26,29.5-42.9,63.8-50.8,102.5c-10.1,49.9-1.7,97,22,141.5    c21.2,39.9,52.3,70.5,92.1,92.2c17.3,9.4,35.2,17.4,54.4,22.2C276.9,515.6,296.2,518.2,315.6,520.5z" fill="#ffffff"/>
		<path id="XMLID_334_" class="st0" d="M680,264.2c-16.3,30.6-40.7,38.8-69.5,38.5c-23.5-0.2-53.3-14.1-59.5-37.4    c15.6,4.7,17.1-6.3,20.7-16.8c12.4-36.9,25.6-73.6,39.1-112c-19.5,0-39.1-3.9-55.7,1.4c-10.4,3.3-20.1,4-30.3,5    c-7,0.7-4.3,5.7-4.3,9c-0.2,33.9-0.1,67.8-0.1,101.7c0,17.9,0.1,35.7-0.1,53.6c-0.1,5.5,1,8.8,6.4,12.1    c21.8,13.2,43.1,27.2,66,41.9c-53.9,0-106.2,0-160.9,0c21.3-13.3,40.4-26.1,60.3-37.4c9.4-5.4,13.5-11.1,13.3-22.5    c-0.8-49.6-0.5-99.1-0.2-148.7c0.1-7.6-1.8-9.8-9.6-9.8c-7.2,0.1-16.6,4.5-21.2-6c-0.2-0.4-2.1-0.2-3.2-0.2c-18.5,0-36.9,0-56.4,0    c14.4,42.1,28.5,82.9,42.4,123.7c3.1,9,11.3,3.4,16.5,6.1c-6.2,19.9-32.3,35.4-57.5,36.7c-33.9,1.7-64.9-17.1-68.5-37.6    c13.3,3.8,15.1-5.4,18.2-14.7c11.9-35.6,24.3-71.1,36.5-106.6c0.2-0.7,1.2-1.2,1.2-1.8c-2.4-16.4,8.4-15,19.1-14.6    c12.7,0.4,25.5,0.5,38.3-0.1c5.9-0.3,13,3.7,17.5-5.4c1.2-2.5,10.9-0.5,16.7-1.1c3.2-0.3,7.9,2.5,9.5-2.3    c1.4-4.3-0.2-7.5-4.5-10.6c-8-5.5-7.9-15.1-5.2-22.7c2-5.8,7.5-10.6,16-10.6c9,0,15.5,2.1,18.9,10.8c3.4,9,2.5,17.6-5.5,23.2    c-4.4,3.1-4.6,6.3-3.7,9.9c1.2,4.5,5.5,2,8.4,2.2c5.1,0.4,11.2-1.7,15.1,0.4c23.8,12.8,49.3,3.3,73.7,6.2c2.5,0.3,6.1-0.1,5,3.6    c-4.4,15.9,5.3,28.8,9.4,42.6c8.2,27.1,19,53.4,27.7,80.4C663.2,263.3,667.1,268.1,680,264.2z" fill="#ffffff"/>
		<path id="XMLID_333_" class="st0" d="M191.8,447.7c-12.6-23.1-19.8-47.8-25.6-72.9c-3.9-17.1-7-34.5-6.6-52.1    c0.5-24,8.2-44.6,25.5-62.7c37.8-39.4,70.7-82.3,86.6-135.9c1.8-6,0.7-12.8,5.8-18.8c20.4,25.1,33.8,52.6,37.5,85.1    c5.8,50.6-15.9,90.3-46.8,127.2c-16.1,19.2-35.2,35.9-47.8,58.1c-3,5.3-3,12.4-10.1,17.8c-1-19.5,2-36.6,8.9-53    c8.8-21,24.4-37.6,36.4-56.4c13.9-21.8,23.6-45.2,26.5-71.2c0.9-7.8-4.2-14.7-2.6-22.7c-10.2,23.2-20.9,45.8-32.3,68.2    c-11.3,22.3-25.2,42.9-39.9,63.1c-11.8,16.1-16,34.9-16.9,54.2C189.3,399.7,189.2,423.7,191.8,447.7z" fill="#ffffff"/>
		<path id="XMLID_332_" class="st2" d="M151.8,79.2c70.1-62,209-79.9,310.3-21.4c-14.8,6.9-30,11.4-42.8,20.9c-1.9,1.4-4,1-6.1-0.3    C383.8,60.8,351.4,52.1,318,47c-34.8-5.3-69.4-1.6-103.3,7.2C193,59.9,172.1,68.4,151.8,79.2z" fill="#ffffff"/>
		<path id="XMLID_331_" class="st2" d="M242.9,547.9c16.7-0.5,33.2,3.2,50.1,2c58.5-4,111.9-21.3,158.3-58.6    c11.1-8.9,20.5-19.4,30.8-29c3.3-3.1,5.7-4.6,11.1-3c9.8,3,20.3,3.5,30.4,5.4c2.6,0.5,6,1.7,7.1,3.7c1.5,2.6-2.1,4.2-3.7,5.9    c-42.1,42.4-92.3,69-151.1,80.3c-27.4,5.3-54.7,4.5-82.1,3.7C276.7,557.7,259.4,554.4,242.9,547.9z" fill="#ffffff"/>
		<path id="XMLID_330_" class="st0" d="M400.1,345.6c-36.1,4.1-70.3,11-103.3,23.8c-32.9,12.7-62.8,30.4-92.3,49.3    c23.7-35.9,52.8-65.7,89.5-88c20.5-12.4,42-22,65.1-28.3c2-0.5,3.7-3.7,6,0.3C374.1,318.7,386.3,332.2,400.1,345.6z" fill="#ffffff"/>
		<path id="XMLID_286_" class="st3" d="M410.3,136.5c15.4,44.4,29.9,86,44.7,128.5c-30.1,0-59.4,0-89.4,0    C380.1,222.9,394.7,181,410.3,136.5z" fill="#ffffff"/>
		<path id="XMLID_285_" class="st3" d="M660,265.3c-29.9,0-59,0-89.5,0c15-43.1,29.8-85.6,44.8-128.7    C630.4,179.9,645.1,222.4,660,265.3z" fill="#ffffff"/>
	</g>
</g>
</svg>