<?xml version="1.0" standalone="no"?>
<!DOCTYPE svg PUBLIC "-//W3C//DTD SVG 20010904//EN"
 "http://www.w3.org/TR/2001/REC-SVG-20010904/DTD/svg10.dtd">
<svg version="1.0" xmlns="http://www.w3.org/2000/svg"
 width="850.000000pt" height="850.000000pt" viewBox="0 0 850.000000 850.000000"
 preserveAspectRatio="xMidYMid meet">
<metadata>
Created by potrace 1.14, written by Peter Selinger 2001-2017
</metadata>
<g transform="translate(0.000000,850.000000) scale(0.100000,-0.100000)"
fill="#000000" stroke="none">
<path d="M3059 6996 c-2 -2 -44 -6 -94 -10 -98 -6 -165 -14 -205 -21 -14 -3
-41 -8 -60 -11 -19 -3 -66 -12 -105 -20 -38 -8 -81 -17 -95 -20 -187 -37 -538
-179 -698 -280 -29 -19 -55 -34 -57 -34 -4 0 -83 -54 -120 -82 -44 -34 -88
-78 -77 -78 6 0 12 5 12 10 0 6 4 10 10 10 5 0 46 18 90 39 44 22 80 37 80 34
0 -3 6 0 13 6 8 6 61 28 118 50 249 93 527 156 784 177 147 12 376 7 495 -12
61 -9 194 -33 220 -39 14 -3 38 -8 53 -10 84 -12 345 -94 457 -143 79 -34 184
-86 220 -109 39 -24 90 -37 90 -23 0 5 17 19 38 30 20 11 44 24 52 30 24 14
178 84 257 116 40 16 73 31 73 34 0 19 -365 190 -435 204 -5 1 -48 14 -95 29
-47 15 -94 29 -105 31 -11 2 -47 11 -80 19 -73 19 -196 40 -300 53 -22 2 -53
6 -70 9 -35 6 -461 16 -466 11z"/>
<path d="M2718 6635 c-2 -2 -38 -6 -80 -10 -43 -3 -88 -8 -100 -10 -13 -2 -41
-6 -63 -10 -22 -3 -47 -7 -55 -10 -8 -2 -33 -6 -55 -10 -22 -3 -58 -10 -80
-16 -22 -6 -49 -13 -60 -16 -11 -2 -24 -5 -30 -7 -82 -22 -111 -31 -175 -53
-41 -15 -91 -33 -110 -42 -19 -8 -37 -15 -40 -16 -26 -8 -232 -107 -240 -116
-3 -3 -29 -19 -57 -35 -29 -16 -53 -32 -53 -36 0 -5 -7 -8 -15 -8 -8 0 -23 -6
-32 -14 -10 -8 -65 -50 -123 -92 -91 -67 -316 -280 -375 -354 -144 -183 -229
-315 -316 -490 -34 -66 -62 -126 -63 -133 -2 -6 -8 -25 -15 -42 -24 -62 -41
-112 -61 -185 -33 -117 -40 -145 -45 -185 -3 -16 -7 -41 -10 -55 -35 -175 -39
-510 -9 -685 3 -16 7 -41 9 -55 9 -69 23 -132 69 -300 28 -103 117 -313 174
-412 12 -21 31 -54 42 -74 82 -144 211 -306 369 -464 142 -140 142 -141 266
-230 50 -36 92 -68 93 -72 2 -5 9 -8 16 -8 7 0 28 -12 47 -26 35 -27 280 -149
359 -179 151 -58 374 -126 460 -140 19 -3 42 -8 50 -10 32 -8 126 -22 230 -32
70 -7 340 -7 405 1 22 2 49 5 60 5 40 3 -8 19 -75 26 -36 3 -76 8 -90 10 -14
3 -36 6 -50 8 -27 4 -103 17 -135 23 -23 4 -58 12 -95 20 -14 3 -36 8 -50 11
-52 11 -225 65 -234 74 -6 5 -16 9 -24 9 -15 0 -83 30 -217 96 -262 129 -437
254 -640 458 -199 200 -342 411 -462 681 -61 138 -127 348 -147 470 -3 17 -7
39 -10 51 -20 91 -27 393 -12 529 10 94 33 226 52 300 20 77 74 247 84 260 3
6 15 33 25 60 26 73 89 195 150 294 180 291 429 544 725 737 68 44 290 160
365 191 154 63 404 134 560 159 11 1 29 5 41 8 117 26 520 27 649 2 11 -2 45
-7 75 -11 65 -9 60 -8 175 -33 50 -11 98 -23 108 -27 20 -8 23 8 5 22 -27 22
-279 100 -443 139 -16 4 -34 8 -40 10 -5 1 -28 5 -50 8 -22 4 -49 8 -60 11
-11 2 -42 7 -70 10 -27 3 -61 8 -75 12 -25 5 -416 13 -422 8z"/>
<path d="M5023 6450 c-47 -24 -81 -81 -90 -151 -6 -41 13 -119 29 -119 4 0 8
-6 8 -12 0 -7 13 -22 30 -33 36 -24 53 -63 44 -98 -7 -31 -4 -30 -140 -27
l-102 2 -36 -36 c-32 -32 -61 -44 -91 -36 -20 6 -214 2 -224 -4 -5 -4 -12 -2
-15 3 -4 6 -18 6 -35 1 -15 -4 -33 -5 -39 -1 -20 12 -259 6 -286 -8 -28 -15
-46 -57 -46 -105 0 -17 -9 -56 -21 -86 -12 -30 -23 -62 -25 -70 -3 -14 -79
-234 -125 -360 -11 -30 -21 -62 -23 -70 -3 -8 -28 -82 -56 -165 -29 -82 -53
-154 -54 -160 -1 -5 -4 -14 -7 -20 -3 -5 -25 -70 -50 -144 -53 -163 -77 -194
-141 -190 -41 3 -43 2 -41 -25 3 -40 57 -120 117 -170 88 -76 231 -140 366
-164 108 -20 310 -6 380 24 8 4 21 8 28 10 57 12 200 103 264 169 53 54 105
153 82 156 -5 1 -33 2 -63 3 -46 2 -58 7 -76 30 -12 15 -22 33 -22 39 -1 7
-44 138 -98 292 -53 154 -107 312 -120 350 -34 101 -125 367 -132 385 -3 8 -7
20 -9 25 -1 6 -14 43 -28 84 -14 41 -26 77 -26 80 0 5 564 6 592 2 4 -1 9 -10
13 -20 11 -35 57 -48 159 -43 149 6 134 106 133 -854 l0 -816 -31 -46 c-25
-38 -57 -63 -174 -133 -78 -47 -205 -126 -282 -175 -77 -49 -163 -104 -192
-121 l-53 -33 805 0 805 0 -50 32 c-27 17 -99 63 -160 103 -146 94 -218 140
-350 222 -118 72 -137 87 -152 118 -7 13 -11 312 -10 857 0 798 0 838 18 843
9 3 42 8 71 11 66 6 98 10 168 24 73 15 70 14 112 29 21 7 42 10 47 7 5 -4 12
-2 15 3 7 11 357 5 462 -8 8 -1 4 -21 -11 -58 -12 -32 -26 -67 -30 -78 -4 -11
-9 -25 -10 -30 -2 -6 -27 -80 -58 -165 -58 -162 -98 -277 -165 -470 -22 -63
-52 -149 -67 -190 -14 -41 -28 -86 -31 -99 -3 -13 -12 -37 -20 -52 -8 -16 -12
-29 -9 -29 11 0 -39 -86 -59 -100 -28 -20 -66 -28 -93 -19 -12 5 -25 4 -28 -1
-12 -20 42 -109 106 -172 153 -152 396 -220 651 -182 190 29 308 93 436 237
17 20 32 39 32 41 0 3 11 22 25 42 33 48 32 53 -8 45 -39 -9 -63 -6 -94 10
-32 17 -47 44 -76 130 -42 125 -137 393 -147 414 -5 11 -43 119 -84 240 -41
121 -89 260 -106 309 -32 91 -40 163 -26 224 7 28 5 33 -16 41 -13 5 -106 7
-208 5 -279 -7 -366 -5 -425 10 -40 9 -109 37 -122 48 -13 11 -150 14 -199 4
-31 -6 -45 7 -51 46 -4 31 1 40 45 84 65 65 76 103 58 199 -7 34 -43 88 -73
106 -52 33 -155 37 -210 9z"/>
<path d="M2762 6153 c-14 -26 -30 -83 -36 -123 -18 -121 -183 -511 -267 -632
-11 -14 -19 -31 -19 -37 0 -6 -4 -11 -10 -11 -5 0 -10 -5 -10 -11 0 -18 -237
-351 -270 -379 -3 -3 -15 -18 -27 -33 -30 -38 -115 -136 -193 -220 -153 -165
-180 -198 -228 -287 -73 -135 -105 -272 -105 -450 0 -140 11 -238 48 -424 48
-240 143 -538 222 -701 32 -67 64 -112 50 -72 -24 66 -25 684 -2 827 12 71 41
192 54 218 4 10 19 40 32 67 24 52 46 85 193 295 48 69 104 152 123 185 70
116 149 261 187 340 21 44 43 83 50 87 6 4 8 8 4 8 -4 0 12 39 36 88 44 87 77
157 135 287 63 140 60 134 61 105 2 -26 4 -36 16 -80 11 -41 13 -136 3 -177
-5 -21 -11 -58 -15 -83 -3 -25 -9 -49 -12 -55 -4 -5 -7 -15 -8 -22 -5 -31 -59
-179 -85 -233 -16 -33 -29 -62 -29 -65 0 -2 -24 -46 -54 -97 -46 -81 -82 -134
-171 -258 -11 -15 -29 -40 -40 -56 -11 -16 -22 -31 -25 -34 -35 -34 -157 -247
-198 -346 -35 -86 -63 -234 -69 -359 l-6 -130 26 23 c14 13 31 38 38 55 48
123 93 196 200 322 75 89 81 96 195 221 202 221 336 403 432 586 38 73 98 215
107 253 3 11 14 56 25 100 28 109 32 141 35 282 5 248 -51 488 -169 721 -36
72 -134 223 -184 285 -27 34 -32 36 -40 20z"/>
<path d="M3480 4164 c-69 -25 -134 -47 -145 -50 -42 -13 -343 -164 -409 -206
-82 -52 -299 -212 -359 -265 -78 -70 -232 -227 -286 -293 -30 -36 -57 -67 -60
-70 -19 -14 -163 -222 -157 -227 3 -3 12 0 20 7 23 18 127 80 136 80 5 0 10 4
12 9 7 20 358 211 561 306 67 31 272 112 302 120 42 9 72 19 80 25 6 4 26 11
45 15 19 4 54 13 77 21 23 7 52 15 65 18 13 2 41 9 63 14 22 6 51 13 65 16 14
2 59 11 100 19 114 24 351 58 360 52 5 -3 11 -1 15 5 4 6 11 7 17 4 25 -16 -2
20 -63 83 -36 37 -91 100 -123 138 -31 39 -63 77 -71 86 -8 9 -15 19 -15 22 0
20 -75 117 -89 116 -9 -1 -72 -21 -141 -45z"/>
<path d="M8189 4092 c-6 -15 -137 -96 -203 -126 -155 -71 -321 -100 -571 -100
-140 0 -250 7 -320 20 -17 3 -39 7 -50 9 -65 12 -96 19 -183 45 -100 29 -134
40 -214 71 -106 42 -165 30 -218 -45 -40 -57 -75 -93 -145 -151 -33 -28 -62
-52 -65 -55 -3 -4 -54 -41 -113 -84 -59 -43 -106 -80 -103 -83 4 -5 7 -5 71
-17 22 -4 108 -20 190 -36 83 -15 166 -31 185 -34 19 -3 45 -8 57 -10 96 -19
363 -26 463 -13 l55 7 -41 -38 c-77 -69 -105 -88 -203 -139 -69 -36 -243 -97
-305 -107 -21 -4 -41 -8 -45 -10 -9 -6 -91 -19 -211 -35 -66 -9 -417 -7 -480
2 -19 3 -60 8 -90 11 -30 4 -66 8 -80 10 -14 3 -52 7 -85 11 -33 3 -69 8 -80
10 -24 5 -91 16 -125 20 -21 2 -154 24 -252 40 -16 3 -40 7 -55 10 -16 2 -48
7 -72 10 -23 3 -56 7 -72 10 -16 3 -41 7 -56 10 -16 2 -50 7 -78 10 -27 3 -77
10 -110 15 -33 5 -81 12 -107 15 -27 3 -69 8 -95 11 -27 3 -68 7 -93 9 -25 2
-74 7 -110 11 -86 10 -319 10 -395 0 -112 -14 -130 -16 -165 -23 -19 -3 -48
-7 -65 -8 -63 -6 -234 -54 -300 -85 -76 -36 -76 -36 15 -55 14 -2 45 -9 70
-15 25 -6 56 -13 70 -16 14 -3 41 -9 60 -14 19 -5 46 -11 60 -14 14 -3 66 -15
115 -27 50 -11 97 -22 105 -24 8 -2 94 -22 190 -45 96 -22 186 -43 200 -46 14
-3 79 -18 146 -34 66 -16 131 -31 145 -34 13 -2 44 -9 69 -15 25 -7 54 -13 65
-15 11 -2 50 -11 86 -19 37 -9 78 -19 90 -21 62 -14 227 -47 249 -51 14 -2 34
-6 45 -8 20 -5 97 -18 125 -23 58 -8 110 -16 140 -19 19 -2 58 -7 85 -10 264
-35 719 -40 895 -11 14 3 59 10 100 16 99 16 96 16 163 33 31 8 57 13 57 10 0
-3 7 0 15 7 8 7 15 10 15 7 0 -4 19 1 43 9 23 9 49 17 57 19 30 7 180 65 218
84 22 11 42 17 46 14 3 -4 6 -1 6 5 0 7 6 12 13 12 14 0 261 136 290 160 7 5
48 36 92 68 155 113 370 313 480 447 22 27 54 65 70 84 34 40 126 157 166 211
34 46 93 159 86 166 -3 3 -7 1 -8 -4z"/>
<path d="M4856 2625 c-16 -9 -48 -34 -72 -58 -74 -73 -218 -211 -251 -239 -35
-30 -179 -138 -205 -153 -9 -5 -54 -33 -100 -62 -74 -45 -205 -116 -218 -118
-3 0 -14 -6 -25 -12 -71 -40 -432 -169 -443 -158 -3 2 -12 0 -22 -5 -9 -5 -28
-11 -41 -14 -13 -3 -35 -8 -49 -11 -14 -3 -36 -7 -50 -10 -27 -5 -62 -12 -97
-19 -21 -4 -72 -12 -143 -22 -150 -20 -326 -23 -500 -10 -158 13 -190 14 -190
6 0 -6 77 -33 82 -29 2 1 12 -3 24 -9 11 -6 32 -13 45 -16 13 -2 59 -12 102
-20 109 -21 246 -30 492 -30 359 0 543 23 825 104 58 17 110 32 115 33 14 4
106 37 130 48 11 4 49 20 85 35 66 27 226 105 289 140 119 68 371 243 422 293
9 9 43 39 75 68 32 28 85 76 117 107 50 48 57 58 48 75 -13 24 -45 35 -131 47
-107 14 -194 30 -270 50 -8 2 -28 -3 -44 -11z"/>
</g>
</svg>
